<svg width="1440" height="114" viewBox="0 0 1440 114" fill="none" xmlns="http://www.w3.org/2000/svg">
<path d="M1440 0H0V100H1440V0Z" fill="black"/>
<path d="M211.06 41.68H188.94V44.33H211.06V41.68Z" fill="white"/>
<path d="M211.06 48.68H188.94V51.33H211.06V48.68Z" fill="white"/>
<path d="M211.06 55.67H188.94V58.32H211.06V55.67Z" fill="white"/>
<path d="M1246.24 53.42C1247.48 51.6349 1248.14 49.5132 1248.14 47.34C1248.14 44.8814 1247.3 42.4959 1245.76 40.5792C1244.22 38.6625 1242.08 37.3297 1239.67 36.8019C1237.27 36.274 1234.76 36.5829 1232.56 37.6772C1230.36 38.7715 1228.6 40.5855 1227.57 42.8184C1226.54 45.0512 1226.31 47.5688 1226.9 49.9535C1227.5 52.3382 1228.9 54.4468 1230.86 55.9295C1232.82 57.4122 1235.23 58.18 1237.69 58.1055C1240.14 58.0311 1242.5 57.1188 1244.37 55.52L1251.37 62.52L1253.37 60.52L1246.24 53.42ZM1237.38 55.31C1235.8 55.31 1234.25 54.8408 1232.94 53.9618C1231.62 53.0827 1230.59 51.8333 1229.99 50.3715C1229.38 48.9097 1229.22 47.3011 1229.53 45.7493C1229.84 44.1974 1230.6 42.772 1231.72 41.6532C1232.84 40.5343 1234.27 39.7724 1235.82 39.4637C1237.37 39.1551 1238.98 39.3135 1240.44 39.919C1241.9 40.5245 1243.15 41.5499 1244.03 42.8655C1244.91 44.181 1245.38 45.7278 1245.38 47.31C1245.38 49.4317 1244.54 51.4666 1243.04 52.9669C1241.54 54.4672 1239.5 55.31 1237.38 55.31Z" fill="white"/>
<path opacity="0.8" d="M555.238 54.32V43.6559H558.724C559.881 43.6559 560.75 43.8952 561.332 44.3737C561.917 44.8522 562.21 45.5602 562.21 46.4977C562.21 46.9958 562.069 47.4377 561.786 47.8234C561.502 48.2043 561.117 48.4997 560.628 48.7097C561.205 48.8708 561.659 49.1784 561.991 49.6325C562.328 50.0817 562.496 50.6188 562.496 51.2438C562.496 52.2009 562.186 52.9528 561.566 53.4997C560.946 54.0466 560.069 54.32 558.937 54.32H555.238ZM556.644 49.3322V53.1701H558.966C559.62 53.1701 560.135 53.0016 560.511 52.6647C560.892 52.3229 561.083 51.8542 561.083 51.2585C561.083 49.9743 560.384 49.3322 558.988 49.3322H556.644ZM556.644 48.2043H558.768C559.383 48.2043 559.874 48.0505 560.24 47.7429C560.611 47.4352 560.797 47.0178 560.797 46.4904C560.797 45.9045 560.626 45.4797 560.284 45.216C559.942 44.9474 559.422 44.8132 558.724 44.8132H556.644V48.2043ZM565.843 54.32H564.488V46.3952H565.843V54.32ZM564.378 44.2932C564.378 44.0734 564.444 43.8879 564.576 43.7365C564.713 43.5851 564.913 43.5095 565.177 43.5095C565.44 43.5095 565.641 43.5851 565.777 43.7365C565.914 43.8879 565.982 44.0734 565.982 44.2932C565.982 44.5129 565.914 44.696 565.777 44.8425C565.641 44.989 565.44 45.0622 565.177 45.0622C564.913 45.0622 564.713 44.989 564.576 44.8425C564.444 44.696 564.378 44.5129 564.378 44.2932ZM569.491 54.32H568.136V43.07H569.491V54.32ZM573.138 54.32H571.783V43.07H573.138V54.32ZM576.786 54.32H575.431V46.3952H576.786V54.32ZM575.321 44.2932C575.321 44.0734 575.387 43.8879 575.519 43.7365C575.655 43.5851 575.855 43.5095 576.119 43.5095C576.383 43.5095 576.583 43.5851 576.72 43.7365C576.856 43.8879 576.925 44.0734 576.925 44.2932C576.925 44.5129 576.856 44.696 576.72 44.8425C576.583 44.989 576.383 45.0622 576.119 45.0622C575.855 45.0622 575.655 44.989 575.519 44.8425C575.387 44.696 575.321 44.5129 575.321 44.2932ZM578.602 50.2844C578.602 49.508 578.753 48.8098 579.056 48.1896C579.364 47.5695 579.789 47.091 580.331 46.7541C580.877 46.4172 581.5 46.2487 582.198 46.2487C583.277 46.2487 584.149 46.6223 584.813 47.3693C585.482 48.1164 585.816 49.11 585.816 50.3503V50.4455C585.816 51.217 585.667 51.9103 585.37 52.5256C585.077 53.1359 584.654 53.612 584.103 53.9538C583.556 54.2956 582.926 54.4665 582.213 54.4665C581.139 54.4665 580.267 54.093 579.598 53.3459C578.934 52.5988 578.602 51.61 578.602 50.3796V50.2844ZM579.964 50.4455C579.964 51.3244 580.167 52.03 580.572 52.5622C580.982 53.0944 581.529 53.3605 582.213 53.3605C582.901 53.3605 583.448 53.092 583.854 52.5549C584.259 52.0129 584.461 51.256 584.461 50.2844C584.461 49.4152 584.254 48.7121 583.839 48.175C583.429 47.633 582.882 47.362 582.198 47.362C581.529 47.362 580.99 47.6281 580.58 48.1603C580.169 48.6926 579.964 49.4543 579.964 50.4455ZM588.797 46.3952L588.841 47.3913C589.447 46.6296 590.238 46.2487 591.214 46.2487C592.889 46.2487 593.734 47.1935 593.749 49.0832V54.32H592.394V49.0759C592.389 48.5046 592.257 48.0822 591.998 47.8088C591.744 47.5353 591.346 47.3986 590.804 47.3986C590.365 47.3986 589.979 47.5158 589.647 47.7502C589.315 47.9846 589.056 48.2922 588.871 48.673V54.32H587.516V46.3952H588.797ZM600.685 54.32C600.606 54.1638 600.543 53.8854 600.494 53.485C599.864 54.1393 599.112 54.4665 598.238 54.4665C597.457 54.4665 596.815 54.2468 596.312 53.8073C595.814 53.363 595.565 52.8015 595.565 52.1227C595.565 51.2975 595.877 50.6579 596.502 50.2038C597.132 49.7448 598.016 49.5153 599.154 49.5153H600.472V48.8928C600.472 48.4191 600.331 48.0432 600.047 47.7648C599.764 47.4816 599.347 47.34 598.795 47.34C598.312 47.34 597.906 47.4621 597.579 47.7062C597.252 47.9504 597.088 48.2458 597.088 48.5925H595.726C595.726 48.197 595.865 47.8161 596.144 47.4499C596.427 47.0788 596.808 46.7858 597.286 46.571C597.77 46.3561 598.299 46.2487 598.875 46.2487C599.789 46.2487 600.504 46.4782 601.021 46.9372C601.539 47.3913 601.808 48.0187 601.827 48.8195V52.467C601.827 53.1945 601.92 53.7731 602.105 54.2028V54.32H600.685ZM598.436 53.2873C598.861 53.2873 599.264 53.1774 599.645 52.9577C600.025 52.738 600.301 52.4523 600.472 52.1008V50.4748H599.41C597.75 50.4748 596.92 50.9606 596.92 51.9323C596.92 52.3571 597.062 52.6891 597.345 52.9284C597.628 53.1677 597.992 53.2873 598.436 53.2873ZM605.423 54.32H604.068V46.3952H605.423V54.32ZM603.958 44.2932C603.958 44.0734 604.024 43.8879 604.156 43.7365C604.293 43.5851 604.493 43.5095 604.757 43.5095C605.021 43.5095 605.221 43.5851 605.357 43.7365C605.494 43.8879 605.562 44.0734 605.562 44.2932C605.562 44.5129 605.494 44.696 605.357 44.8425C605.221 44.989 605.021 45.0622 604.757 45.0622C604.493 45.0622 604.293 44.989 604.156 44.8425C604.024 44.696 603.958 44.5129 603.958 44.2932ZM611.429 47.611C611.224 47.5768 611.002 47.5598 610.763 47.5598C609.874 47.5598 609.271 47.9382 608.954 48.695V54.32H607.599V46.3952H608.917L608.939 47.3107C609.383 46.6027 610.013 46.2487 610.829 46.2487C611.092 46.2487 611.292 46.2829 611.429 46.3513V47.611ZM615.824 54.4665C614.75 54.4665 613.875 54.1149 613.202 53.4118C612.528 52.7038 612.191 51.759 612.191 50.5773V50.3283C612.191 49.5422 612.34 48.8415 612.638 48.2263C612.94 47.6061 613.36 47.1227 613.897 46.7761C614.439 46.4245 615.025 46.2487 615.655 46.2487C616.686 46.2487 617.486 46.5881 618.058 47.2668C618.629 47.9455 618.915 48.9172 618.915 50.1818V50.7458H613.546C613.565 51.527 613.792 52.1594 614.227 52.6428C614.667 53.1213 615.223 53.3605 615.897 53.3605C616.375 53.3605 616.781 53.2629 617.113 53.0676C617.445 52.8723 617.735 52.6135 617.984 52.2912L618.812 52.9357C618.148 53.9562 617.152 54.4665 615.824 54.4665ZM615.655 47.362C615.108 47.362 614.649 47.5622 614.278 47.9626C613.907 48.3581 613.678 48.9147 613.59 49.6325H617.56V49.53C617.521 48.8415 617.335 48.3093 617.003 47.9333C616.671 47.5524 616.222 47.362 615.655 47.362ZM625.104 52.218C625.104 51.8517 624.964 51.5685 624.686 51.3683C624.413 51.1633 623.932 50.9875 623.243 50.841C622.56 50.6945 622.015 50.5187 621.61 50.3137C621.209 50.1086 620.912 49.8644 620.716 49.5812C620.526 49.298 620.431 48.9611 620.431 48.5705C620.431 47.9211 620.704 47.3718 621.251 46.9225C621.803 46.4733 622.506 46.2487 623.36 46.2487C624.259 46.2487 624.986 46.4807 625.543 46.9445C626.104 47.4084 626.385 48.0016 626.385 48.7243H625.023C625.023 48.3532 624.864 48.0334 624.547 47.7648C624.234 47.4963 623.839 47.362 623.36 47.362C622.867 47.362 622.481 47.4694 622.203 47.6843C621.925 47.8991 621.786 48.1799 621.786 48.5266C621.786 48.8537 621.915 49.1003 622.174 49.2663C622.433 49.4323 622.899 49.591 623.573 49.7424C624.251 49.8937 624.801 50.0744 625.221 50.2844C625.641 50.4943 625.951 50.7482 626.151 51.0461C626.356 51.3391 626.458 51.6979 626.458 52.1227C626.458 52.8307 626.175 53.3996 625.609 53.8293C625.042 54.2541 624.308 54.4665 623.404 54.4665C622.77 54.4665 622.208 54.3542 621.72 54.1296C621.231 53.905 620.848 53.5925 620.57 53.1921C620.296 52.7868 620.16 52.3498 620.16 51.881H621.515C621.539 52.3351 621.72 52.6965 622.057 52.965C622.398 53.2287 622.848 53.3605 623.404 53.3605C623.917 53.3605 624.327 53.258 624.635 53.0529C624.947 52.843 625.104 52.5646 625.104 52.218Z" fill="white"/>
<path opacity="0.8" d="M659.747 54.32H658.34V43.6559H659.747V54.32ZM663.394 46.3952L663.438 47.3913C664.043 46.6296 664.834 46.2487 665.811 46.2487C667.486 46.2487 668.331 47.1935 668.345 49.0832V54.32H666.99V49.0759C666.985 48.5046 666.854 48.0822 666.595 47.8088C666.341 47.5353 665.943 47.3986 665.401 47.3986C664.961 47.3986 664.576 47.5158 664.244 47.7502C663.912 47.9846 663.653 48.2922 663.467 48.673V54.32H662.112V46.3952H663.394ZM671.67 46.3952L671.714 47.3913C672.32 46.6296 673.111 46.2487 674.087 46.2487C675.762 46.2487 676.607 47.1935 676.622 49.0832V54.32H675.267V49.0759C675.262 48.5046 675.13 48.0822 674.871 47.8088C674.617 47.5353 674.219 47.3986 673.677 47.3986C673.238 47.3986 672.852 47.5158 672.52 47.7502C672.188 47.9846 671.929 48.2922 671.744 48.673V54.32H670.389V46.3952H671.67ZM678.306 50.2844C678.306 49.508 678.458 48.8098 678.76 48.1896C679.068 47.5695 679.493 47.091 680.035 46.7541C680.582 46.4172 681.204 46.2487 681.902 46.2487C682.981 46.2487 683.853 46.6223 684.517 47.3693C685.186 48.1164 685.521 49.11 685.521 50.3503V50.4455C685.521 51.217 685.372 51.9103 685.074 52.5256C684.781 53.1359 684.358 53.612 683.807 53.9538C683.26 54.2956 682.63 54.4665 681.917 54.4665C680.843 54.4665 679.971 54.093 679.302 53.3459C678.638 52.5988 678.306 51.61 678.306 50.3796V50.2844ZM679.668 50.4455C679.668 51.3244 679.871 52.03 680.276 52.5622C680.687 53.0944 681.233 53.3605 681.917 53.3605C682.605 53.3605 683.152 53.092 683.558 52.5549C683.963 52.0129 684.166 51.256 684.166 50.2844C684.166 49.4152 683.958 48.7121 683.543 48.175C683.133 47.633 682.586 47.362 681.902 47.362C681.233 47.362 680.694 47.6281 680.284 48.1603C679.874 48.6926 679.668 49.4543 679.668 50.4455ZM689.717 52.4816L691.68 46.3952H693.064L690.223 54.32H689.19L686.319 46.3952H687.703L689.717 52.4816ZM699.144 54.32C699.065 54.1638 699.002 53.8854 698.953 53.485C698.323 54.1393 697.571 54.4665 696.697 54.4665C695.916 54.4665 695.274 54.2468 694.771 53.8073C694.273 53.363 694.024 52.8015 694.024 52.1227C694.024 51.2975 694.336 50.6579 694.961 50.2038C695.591 49.7448 696.475 49.5153 697.613 49.5153H698.931V48.8928C698.931 48.4191 698.79 48.0432 698.506 47.7648C698.223 47.4816 697.806 47.34 697.254 47.34C696.771 47.34 696.365 47.4621 696.038 47.7062C695.711 47.9504 695.547 48.2458 695.547 48.5925H694.185C694.185 48.197 694.324 47.8161 694.603 47.4499C694.886 47.0788 695.267 46.7858 695.745 46.571C696.229 46.3561 696.758 46.2487 697.334 46.2487C698.248 46.2487 698.963 46.4782 699.48 46.9372C699.998 47.3913 700.267 48.0187 700.286 48.8195V52.467C700.286 53.1945 700.379 53.7731 700.564 54.2028V54.32H699.144ZM696.895 53.2873C697.32 53.2873 697.723 53.1774 698.104 52.9577C698.484 52.738 698.76 52.4523 698.931 52.1008V50.4748H697.869C696.209 50.4748 695.379 50.9606 695.379 51.9323C695.379 52.3571 695.521 52.6891 695.804 52.9284C696.087 53.1677 696.451 53.2873 696.895 53.2873ZM704.249 44.4763V46.3952H705.728V47.4426H704.249V52.3571C704.249 52.6745 704.314 52.9138 704.446 53.0749C704.578 53.2311 704.803 53.3093 705.12 53.3093C705.276 53.3093 705.491 53.28 705.765 53.2214V54.32C705.408 54.4177 705.062 54.4665 704.725 54.4665C704.119 54.4665 703.663 54.2834 703.355 53.9172C703.047 53.551 702.894 53.0309 702.894 52.3571V47.4426H701.451V46.3952H702.894V44.4763H704.249ZM708.79 54.32H707.435V46.3952H708.79V54.32ZM707.325 44.2932C707.325 44.0734 707.391 43.8879 707.522 43.7365C707.659 43.5851 707.859 43.5095 708.123 43.5095C708.387 43.5095 708.587 43.5851 708.724 43.7365C708.86 43.8879 708.929 44.0734 708.929 44.2932C708.929 44.5129 708.86 44.696 708.724 44.8425C708.587 44.989 708.387 45.0622 708.123 45.0622C707.859 45.0622 707.659 44.989 707.522 44.8425C707.391 44.696 707.325 44.5129 707.325 44.2932ZM710.606 50.2844C710.606 49.508 710.757 48.8098 711.06 48.1896C711.368 47.5695 711.792 47.091 712.334 46.7541C712.881 46.4172 713.504 46.2487 714.202 46.2487C715.281 46.2487 716.153 46.6223 716.817 47.3693C717.486 48.1164 717.82 49.11 717.82 50.3503V50.4455C717.82 51.217 717.671 51.9103 717.374 52.5256C717.081 53.1359 716.658 53.612 716.106 53.9538C715.56 54.2956 714.93 54.4665 714.217 54.4665C713.143 54.4665 712.271 54.093 711.602 53.3459C710.938 52.5988 710.606 51.61 710.606 50.3796V50.2844ZM711.968 50.4455C711.968 51.3244 712.171 52.03 712.576 52.5622C712.986 53.0944 713.533 53.3605 714.217 53.3605C714.905 53.3605 715.452 53.092 715.857 52.5549C716.263 52.0129 716.465 51.256 716.465 50.2844C716.465 49.4152 716.258 48.7121 715.843 48.175C715.433 47.633 714.886 47.362 714.202 47.362C713.533 47.362 712.994 47.6281 712.583 48.1603C712.173 48.6926 711.968 49.4543 711.968 50.4455ZM720.801 46.3952L720.845 47.3913C721.451 46.6296 722.242 46.2487 723.218 46.2487C724.893 46.2487 725.738 47.1935 725.752 49.0832V54.32H724.397V49.0759C724.393 48.5046 724.261 48.0822 724.002 47.8088C723.748 47.5353 723.35 47.3986 722.808 47.3986C722.369 47.3986 721.983 47.5158 721.651 47.7502C721.319 47.9846 721.06 48.2922 720.875 48.673V54.32H719.52V46.3952H720.801Z" fill="white"/>
<path opacity="0.8" d="M757.238 54.32V43.6559H760.724C761.881 43.6559 762.75 43.8952 763.332 44.3737C763.917 44.8522 764.21 45.5602 764.21 46.4977C764.21 46.9958 764.069 47.4377 763.786 47.8234C763.502 48.2043 763.117 48.4997 762.628 48.7097C763.205 48.8708 763.659 49.1784 763.991 49.6325C764.328 50.0817 764.496 50.6188 764.496 51.2438C764.496 52.2009 764.186 52.9528 763.566 53.4997C762.946 54.0466 762.069 54.32 760.937 54.32H757.238ZM758.644 49.3322V53.1701H760.966C761.62 53.1701 762.135 53.0016 762.511 52.6647C762.892 52.3229 763.083 51.8542 763.083 51.2585C763.083 49.9743 762.384 49.3322 760.988 49.3322H758.644ZM758.644 48.2043H760.768C761.383 48.2043 761.874 48.0505 762.24 47.7429C762.611 47.4352 762.797 47.0178 762.797 46.4904C762.797 45.9045 762.626 45.4797 762.284 45.216C761.942 44.9474 761.422 44.8132 760.724 44.8132H758.644V48.2043ZM771.264 53.5363C770.736 54.1564 769.962 54.4665 768.942 54.4665C768.097 54.4665 767.453 54.2224 767.008 53.7341C766.569 53.2409 766.347 52.5134 766.342 51.5515V46.3952H767.697V51.5148C767.697 52.716 768.185 53.3166 769.162 53.3166C770.197 53.3166 770.885 52.9308 771.227 52.1594V46.3952H772.582V54.32H771.293L771.264 53.5363ZM779.262 52.218C779.262 51.8517 779.123 51.5685 778.844 51.3683C778.571 51.1633 778.09 50.9875 777.401 50.841C776.718 50.6945 776.173 50.5187 775.768 50.3137C775.368 50.1086 775.07 49.8644 774.875 49.5812C774.684 49.298 774.589 48.9611 774.589 48.5705C774.589 47.9211 774.862 47.3718 775.409 46.9225C775.961 46.4733 776.664 46.2487 777.519 46.2487C778.417 46.2487 779.145 46.4807 779.701 46.9445C780.263 47.4084 780.543 48.0016 780.543 48.7243H779.181C779.181 48.3532 779.022 48.0334 778.705 47.7648C778.393 47.4963 777.997 47.362 777.519 47.362C777.025 47.362 776.64 47.4694 776.361 47.6843C776.083 47.8991 775.944 48.1799 775.944 48.5266C775.944 48.8537 776.073 49.1003 776.332 49.2663C776.591 49.4323 777.057 49.591 777.731 49.7424C778.41 49.8937 778.959 50.0744 779.379 50.2844C779.799 50.4943 780.109 50.7482 780.309 51.0461C780.514 51.3391 780.617 51.6979 780.617 52.1227C780.617 52.8307 780.333 53.3996 779.767 53.8293C779.201 54.2541 778.466 54.4665 777.562 54.4665C776.928 54.4665 776.366 54.3542 775.878 54.1296C775.39 53.905 775.006 53.5925 774.728 53.1921C774.455 52.7868 774.318 52.3498 774.318 51.881H775.673C775.697 52.3351 775.878 52.6965 776.215 52.965C776.557 53.2287 777.006 53.3605 777.562 53.3605C778.075 53.3605 778.485 53.258 778.793 53.0529C779.105 52.843 779.262 52.5646 779.262 52.218ZM783.854 54.32H782.499V46.3952H783.854V54.32ZM782.389 44.2932C782.389 44.0734 782.455 43.8879 782.587 43.7365C782.724 43.5851 782.924 43.5095 783.188 43.5095C783.451 43.5095 783.651 43.5851 783.788 43.7365C783.925 43.8879 783.993 44.0734 783.993 44.2932C783.993 44.5129 783.925 44.696 783.788 44.8425C783.651 44.989 783.451 45.0622 783.188 45.0622C782.924 45.0622 782.724 44.989 782.587 44.8425C782.455 44.696 782.389 44.5129 782.389 44.2932ZM787.311 46.3952L787.355 47.3913C787.96 46.6296 788.751 46.2487 789.728 46.2487C791.403 46.2487 792.248 47.1935 792.262 49.0832V54.32H790.907V49.0759C790.902 48.5046 790.771 48.0822 790.512 47.8088C790.258 47.5353 789.86 47.3986 789.318 47.3986C788.878 47.3986 788.493 47.5158 788.161 47.7502C787.829 47.9846 787.57 48.2922 787.384 48.673V54.32H786.029V46.3952H787.311ZM797.594 54.4665C796.52 54.4665 795.646 54.1149 794.972 53.4118C794.298 52.7038 793.961 51.759 793.961 50.5773V50.3283C793.961 49.5422 794.11 48.8415 794.408 48.2263C794.711 47.6061 795.131 47.1227 795.668 46.7761C796.21 46.4245 796.796 46.2487 797.426 46.2487C798.456 46.2487 799.257 46.5881 799.828 47.2668C800.399 47.9455 800.685 48.9172 800.685 50.1818V50.7458H795.316C795.336 51.527 795.563 52.1594 795.998 52.6428C796.437 53.1213 796.994 53.3605 797.667 53.3605C798.146 53.3605 798.551 53.2629 798.883 53.0676C799.215 52.8723 799.506 52.6135 799.755 52.2912L800.583 52.9357C799.918 53.9562 798.922 54.4665 797.594 54.4665ZM797.426 47.362C796.879 47.362 796.42 47.5622 796.049 47.9626C795.678 48.3581 795.448 48.9147 795.36 49.6325H799.33V49.53C799.291 48.8415 799.105 48.3093 798.773 47.9333C798.441 47.5524 797.992 47.362 797.426 47.362ZM806.874 52.218C806.874 51.8517 806.735 51.5685 806.457 51.3683C806.183 51.1633 805.702 50.9875 805.014 50.841C804.33 50.6945 803.786 50.5187 803.38 50.3137C802.98 50.1086 802.682 49.8644 802.487 49.5812C802.296 49.298 802.201 48.9611 802.201 48.5705C802.201 47.9211 802.475 47.3718 803.021 46.9225C803.573 46.4733 804.276 46.2487 805.131 46.2487C806.029 46.2487 806.757 46.4807 807.313 46.9445C807.875 47.4084 808.156 48.0016 808.156 48.7243H806.793C806.793 48.3532 806.635 48.0334 806.317 47.7648C806.005 47.4963 805.609 47.362 805.131 47.362C804.638 47.362 804.252 47.4694 803.974 47.6843C803.695 47.8991 803.556 48.1799 803.556 48.5266C803.556 48.8537 803.686 49.1003 803.944 49.2663C804.203 49.4323 804.669 49.591 805.343 49.7424C806.022 49.8937 806.571 50.0744 806.991 50.2844C807.411 50.4943 807.721 50.7482 807.921 51.0461C808.126 51.3391 808.229 51.6979 808.229 52.1227C808.229 52.8307 807.946 53.3996 807.379 53.8293C806.813 54.2541 806.078 54.4665 805.175 54.4665C804.54 54.4665 803.979 54.3542 803.49 54.1296C803.002 53.905 802.619 53.5925 802.34 53.1921C802.067 52.7868 801.93 52.3498 801.93 51.881H803.285C803.31 52.3351 803.49 52.6965 803.827 52.965C804.169 53.2287 804.618 53.3605 805.175 53.3605C805.688 53.3605 806.098 53.258 806.405 53.0529C806.718 52.843 806.874 52.5646 806.874 52.218ZM814.608 52.218C814.608 51.8517 814.469 51.5685 814.191 51.3683C813.917 51.1633 813.437 50.9875 812.748 50.841C812.064 50.6945 811.52 50.5187 811.115 50.3137C810.714 50.1086 810.417 49.8644 810.221 49.5812C810.031 49.298 809.936 48.9611 809.936 48.5705C809.936 47.9211 810.209 47.3718 810.756 46.9225C811.308 46.4733 812.011 46.2487 812.865 46.2487C813.764 46.2487 814.491 46.4807 815.048 46.9445C815.609 47.4084 815.89 48.0016 815.89 48.7243H814.528C814.528 48.3532 814.369 48.0334 814.052 47.7648C813.739 47.4963 813.344 47.362 812.865 47.362C812.372 47.362 811.986 47.4694 811.708 47.6843C811.43 47.8991 811.291 48.1799 811.291 48.5266C811.291 48.8537 811.42 49.1003 811.679 49.2663C811.938 49.4323 812.404 49.591 813.078 49.7424C813.756 49.8937 814.306 50.0744 814.726 50.2844C815.146 50.4943 815.456 50.7482 815.656 51.0461C815.861 51.3391 815.963 51.6979 815.963 52.1227C815.963 52.8307 815.68 53.3996 815.114 53.8293C814.547 54.2541 813.812 54.4665 812.909 54.4665C812.274 54.4665 811.713 54.3542 811.225 54.1296C810.736 53.905 810.353 53.5925 810.075 53.1921C809.801 52.7868 809.665 52.3498 809.665 51.881H811.02C811.044 52.3351 811.225 52.6965 811.562 52.965C811.903 53.2287 812.353 53.3605 812.909 53.3605C813.422 53.3605 813.832 53.258 814.14 53.0529C814.452 52.843 814.608 52.5646 814.608 52.218Z" fill="white"/>
<path opacity="0.8" d="M850.38 49.5666C849.174 49.2199 848.295 48.7951 847.743 48.2922C847.196 47.7844 846.923 47.1594 846.923 46.4172C846.923 45.5773 847.257 44.884 847.926 44.3371C848.6 43.7853 849.474 43.5095 850.548 43.5095C851.281 43.5095 851.933 43.6511 852.504 43.9343C853.08 44.2175 853.524 44.6081 853.837 45.1061C854.154 45.6042 854.313 46.1486 854.313 46.7394H852.899C852.899 46.0949 852.694 45.5895 852.284 45.2233C851.874 44.8522 851.295 44.6667 850.548 44.6667C849.855 44.6667 849.313 44.8205 848.922 45.1281C848.537 45.4308 848.344 45.8532 848.344 46.3952C848.344 46.8298 848.527 47.1984 848.893 47.5012C849.264 47.799 849.892 48.0724 850.775 48.3215C851.664 48.5705 852.357 48.8464 852.855 49.1491C853.358 49.447 853.729 49.7961 853.969 50.1965C854.213 50.5969 854.335 51.0681 854.335 51.61C854.335 52.4743 853.998 53.1677 853.324 53.6901C852.65 54.2077 851.75 54.4665 850.622 54.4665C849.889 54.4665 849.206 54.3273 848.571 54.049C847.936 53.7658 847.445 53.3801 847.099 52.8918C846.757 52.4035 846.586 51.8493 846.586 51.2292H848C848 51.8737 848.236 52.384 848.71 52.7599C849.188 53.131 849.826 53.3166 850.622 53.3166C851.364 53.3166 851.933 53.1652 852.328 52.8625C852.724 52.5598 852.921 52.1472 852.921 51.6247C852.921 51.1022 852.738 50.6994 852.372 50.4162C852.006 50.1281 851.342 49.8449 850.38 49.5666ZM857.206 46.3952L857.243 47.2741C857.824 46.5905 858.607 46.2487 859.594 46.2487C860.702 46.2487 861.457 46.6735 861.857 47.5231C862.121 47.1423 862.462 46.8347 862.882 46.6003C863.307 46.3659 863.808 46.2487 864.384 46.2487C866.122 46.2487 867.006 47.1691 867.035 49.0099V54.32H865.68V49.0905C865.68 48.5241 865.551 48.1017 865.292 47.8234C865.033 47.5402 864.599 47.3986 863.988 47.3986C863.485 47.3986 863.068 47.55 862.736 47.8527C862.404 48.1506 862.211 48.5534 862.157 49.0612V54.32H860.795V49.1271C860.795 47.9748 860.231 47.3986 859.103 47.3986C858.214 47.3986 857.606 47.777 857.279 48.5339V54.32H855.924V46.3952H857.206ZM873.979 54.32C873.9 54.1638 873.837 53.8854 873.788 53.485C873.158 54.1393 872.406 54.4665 871.532 54.4665C870.751 54.4665 870.109 54.2468 869.606 53.8073C869.108 53.363 868.859 52.8015 868.859 52.1227C868.859 51.2975 869.171 50.6579 869.796 50.2038C870.426 49.7448 871.31 49.5153 872.448 49.5153H873.766V48.8928C873.766 48.4191 873.625 48.0432 873.341 47.7648C873.058 47.4816 872.641 47.34 872.089 47.34C871.605 47.34 871.2 47.4621 870.873 47.7062C870.546 47.9504 870.382 48.2458 870.382 48.5925H869.02C869.02 48.197 869.159 47.8161 869.438 47.4499C869.721 47.0788 870.102 46.7858 870.58 46.571C871.063 46.3561 871.593 46.2487 872.169 46.2487C873.083 46.2487 873.798 46.4782 874.315 46.9372C874.833 47.3913 875.102 48.0187 875.121 48.8195V52.467C875.121 53.1945 875.214 53.7731 875.399 54.2028V54.32H873.979ZM871.73 53.2873C872.155 53.2873 872.558 53.1774 872.938 52.9577C873.319 52.738 873.595 52.4523 873.766 52.1008V50.4748H872.704C871.044 50.4748 870.214 50.9606 870.214 51.9323C870.214 52.3571 870.355 52.6891 870.639 52.9284C870.922 53.1677 871.286 53.2873 871.73 53.2873ZM878.717 54.32H877.362V43.07H878.717V54.32ZM882.365 54.32H881.01V43.07H882.365V54.32ZM888.473 54.32V43.6559H891.959C893.117 43.6559 893.986 43.8952 894.567 44.3737C895.153 44.8522 895.446 45.5602 895.446 46.4977C895.446 46.9958 895.304 47.4377 895.021 47.8234C894.738 48.2043 894.352 48.4997 893.864 48.7097C894.44 48.8708 894.894 49.1784 895.226 49.6325C895.563 50.0817 895.731 50.6188 895.731 51.2438C895.731 52.2009 895.421 52.9528 894.801 53.4997C894.181 54.0466 893.305 54.32 892.172 54.32H888.473ZM889.879 49.3322V53.1701H892.201C892.855 53.1701 893.371 53.0016 893.747 52.6647C894.127 52.3229 894.318 51.8542 894.318 51.2585C894.318 49.9743 893.62 49.3322 892.223 49.3322H889.879ZM889.879 48.2043H892.003C892.619 48.2043 893.109 48.0505 893.476 47.7429C893.847 47.4352 894.032 47.0178 894.032 46.4904C894.032 45.9045 893.861 45.4797 893.52 45.216C893.178 44.9474 892.658 44.8132 891.959 44.8132H889.879V48.2043ZM902.499 53.5363C901.972 54.1564 901.198 54.4665 900.177 54.4665C899.333 54.4665 898.688 54.2224 898.244 53.7341C897.804 53.2409 897.582 52.5134 897.577 51.5515V46.3952H898.932V51.5148C898.932 52.716 899.42 53.3166 900.397 53.3166C901.432 53.3166 902.121 52.9308 902.462 52.1594V46.3952H903.817V54.32H902.528L902.499 53.5363ZM910.497 52.218C910.497 51.8517 910.358 51.5685 910.08 51.3683C909.806 51.1633 909.325 50.9875 908.637 50.841C907.953 50.6945 907.409 50.5187 907.003 50.3137C906.603 50.1086 906.305 49.8644 906.11 49.5812C905.919 49.298 905.824 48.9611 905.824 48.5705C905.824 47.9211 906.098 47.3718 906.645 46.9225C907.196 46.4733 907.899 46.2487 908.754 46.2487C909.652 46.2487 910.38 46.4807 910.937 46.9445C911.498 47.4084 911.779 48.0016 911.779 48.7243H910.417C910.417 48.3532 910.258 48.0334 909.94 47.7648C909.628 47.4963 909.232 47.362 908.754 47.362C908.261 47.362 907.875 47.4694 907.597 47.6843C907.318 47.8991 907.179 48.1799 907.179 48.5266C907.179 48.8537 907.309 49.1003 907.567 49.2663C907.826 49.4323 908.292 49.591 908.966 49.7424C909.645 49.8937 910.194 50.0744 910.614 50.2844C911.034 50.4943 911.344 50.7482 911.544 51.0461C911.75 51.3391 911.852 51.6979 911.852 52.1227C911.852 52.8307 911.569 53.3996 911.002 53.8293C910.436 54.2541 909.701 54.4665 908.798 54.4665C908.163 54.4665 907.602 54.3542 907.113 54.1296C906.625 53.905 906.242 53.5925 905.963 53.1921C905.69 52.7868 905.553 52.3498 905.553 51.881H906.908C906.933 52.3351 907.113 52.6965 907.45 52.965C907.792 53.2287 908.241 53.3605 908.798 53.3605C909.311 53.3605 909.721 53.258 910.028 53.0529C910.341 52.843 910.497 52.5646 910.497 52.218ZM915.089 54.32H913.734V46.3952H915.089V54.32ZM913.625 44.2932C913.625 44.0734 913.69 43.8879 913.822 43.7365C913.959 43.5851 914.159 43.5095 914.423 43.5095C914.687 43.5095 914.887 43.5851 915.023 43.7365C915.16 43.8879 915.229 44.0734 915.229 44.2932C915.229 44.5129 915.16 44.696 915.023 44.8425C914.887 44.989 914.687 45.0622 914.423 45.0622C914.159 45.0622 913.959 44.989 913.822 44.8425C913.69 44.696 913.625 44.5129 913.625 44.2932ZM918.546 46.3952L918.59 47.3913C919.196 46.6296 919.987 46.2487 920.963 46.2487C922.638 46.2487 923.483 47.1935 923.498 49.0832V54.32H922.143V49.0759C922.138 48.5046 922.006 48.0822 921.747 47.8088C921.493 47.5353 921.095 47.3986 920.553 47.3986C920.114 47.3986 919.728 47.5158 919.396 47.7502C919.064 47.9846 918.805 48.2922 918.62 48.673V54.32H917.265V46.3952H918.546ZM928.83 54.4665C927.755 54.4665 926.881 54.1149 926.208 53.4118C925.534 52.7038 925.197 51.759 925.197 50.5773V50.3283C925.197 49.5422 925.346 48.8415 925.644 48.2263C925.946 47.6061 926.366 47.1227 926.903 46.7761C927.445 46.4245 928.031 46.2487 928.661 46.2487C929.691 46.2487 930.492 46.5881 931.063 47.2668C931.635 47.9455 931.92 48.9172 931.92 50.1818V50.7458H926.552C926.571 51.527 926.798 52.1594 927.233 52.6428C927.672 53.1213 928.229 53.3605 928.903 53.3605C929.381 53.3605 929.787 53.2629 930.119 53.0676C930.451 52.8723 930.741 52.6135 930.99 52.2912L931.818 52.9357C931.154 53.9562 930.158 54.4665 928.83 54.4665ZM928.661 47.362C928.114 47.362 927.655 47.5622 927.284 47.9626C926.913 48.3581 926.684 48.9147 926.596 49.6325H930.565V49.53C930.526 48.8415 930.341 48.3093 930.009 47.9333C929.677 47.5524 929.228 47.362 928.661 47.362ZM938.109 52.218C938.109 51.8517 937.97 51.5685 937.692 51.3683C937.418 51.1633 936.938 50.9875 936.249 50.841C935.565 50.6945 935.021 50.5187 934.616 50.3137C934.215 50.1086 933.917 49.8644 933.722 49.5812C933.532 49.298 933.437 48.9611 933.437 48.5705C933.437 47.9211 933.71 47.3718 934.257 46.9225C934.809 46.4733 935.512 46.2487 936.366 46.2487C937.265 46.2487 937.992 46.4807 938.549 46.9445C939.11 47.4084 939.391 48.0016 939.391 48.7243H938.029C938.029 48.3532 937.87 48.0334 937.553 47.7648C937.24 47.4963 936.845 47.362 936.366 47.362C935.873 47.362 935.487 47.4694 935.209 47.6843C934.931 47.8991 934.792 48.1799 934.792 48.5266C934.792 48.8537 934.921 49.1003 935.18 49.2663C935.438 49.4323 935.905 49.591 936.579 49.7424C937.257 49.8937 937.807 50.0744 938.227 50.2844C938.646 50.4943 938.957 50.7482 939.157 51.0461C939.362 51.3391 939.464 51.6979 939.464 52.1227C939.464 52.8307 939.181 53.3996 938.615 53.8293C938.048 54.2541 937.313 54.4665 936.41 54.4665C935.775 54.4665 935.214 54.3542 934.726 54.1296C934.237 53.905 933.854 53.5925 933.576 53.1921C933.302 52.7868 933.166 52.3498 933.166 51.881H934.521C934.545 52.3351 934.726 52.6965 935.062 52.965C935.404 53.2287 935.854 53.3605 936.41 53.3605C936.923 53.3605 937.333 53.258 937.641 53.0529C937.953 52.843 938.109 52.5646 938.109 52.218ZM945.844 52.218C945.844 51.8517 945.705 51.5685 945.426 51.3683C945.153 51.1633 944.672 50.9875 943.983 50.841C943.3 50.6945 942.755 50.5187 942.35 50.3137C941.95 50.1086 941.652 49.8644 941.457 49.5812C941.266 49.298 941.171 48.9611 941.171 48.5705C941.171 47.9211 941.444 47.3718 941.991 46.9225C942.543 46.4733 943.246 46.2487 944.101 46.2487C944.999 46.2487 945.727 46.4807 946.283 46.9445C946.845 47.4084 947.125 48.0016 947.125 48.7243H945.763C945.763 48.3532 945.604 48.0334 945.287 47.7648C944.975 47.4963 944.579 47.362 944.101 47.362C943.607 47.362 943.222 47.4694 942.943 47.6843C942.665 47.8991 942.526 48.1799 942.526 48.5266C942.526 48.8537 942.655 49.1003 942.914 49.2663C943.173 49.4323 943.639 49.591 944.313 49.7424C944.992 49.8937 945.541 50.0744 945.961 50.2844C946.381 50.4943 946.691 50.7482 946.891 51.0461C947.096 51.3391 947.199 51.6979 947.199 52.1227C947.199 52.8307 946.916 53.3996 946.349 53.8293C945.783 54.2541 945.048 54.4665 944.145 54.4665C943.51 54.4665 942.948 54.3542 942.46 54.1296C941.972 53.905 941.588 53.5925 941.31 53.1921C941.037 52.7868 940.9 52.3498 940.9 51.881H942.255C942.279 52.3351 942.46 52.6965 942.797 52.965C943.139 53.2287 943.588 53.3605 944.145 53.3605C944.657 53.3605 945.067 53.258 945.375 53.0529C945.688 52.843 945.844 52.5646 945.844 52.218Z" fill="white"/>
<path opacity="0.8" d="M979.651 53.1701H984.705V54.32H978.238V43.6559H979.651V53.1701ZM987.569 54.32H986.214V46.3952H987.569V54.32ZM986.104 44.2932C986.104 44.0734 986.17 43.8879 986.302 43.7365C986.438 43.5851 986.639 43.5095 986.902 43.5095C987.166 43.5095 987.366 43.5851 987.503 43.7365C987.64 43.8879 987.708 44.0734 987.708 44.2932C987.708 44.5129 987.64 44.696 987.503 44.8425C987.366 44.989 987.166 45.0622 986.902 45.0622C986.639 45.0622 986.438 44.989 986.302 44.8425C986.17 44.696 986.104 44.5129 986.104 44.2932ZM990.411 54.32V47.4426H989.158V46.3952H990.411V45.5822C990.411 44.7326 990.638 44.0759 991.092 43.612C991.546 43.1481 992.188 42.9162 993.018 42.9162C993.331 42.9162 993.641 42.9577 993.948 43.0407L993.875 44.1393C993.646 44.0954 993.401 44.0734 993.143 44.0734C992.703 44.0734 992.364 44.2028 992.125 44.4616C991.885 44.7155 991.766 45.0817 991.766 45.5602V46.3952H993.458V47.4426H991.766V54.32H990.411ZM998.072 54.4665C996.998 54.4665 996.124 54.1149 995.45 53.4118C994.776 52.7038 994.439 51.759 994.439 50.5773V50.3283C994.439 49.5422 994.588 48.8415 994.886 48.2263C995.188 47.6061 995.608 47.1227 996.146 46.7761C996.688 46.4245 997.273 46.2487 997.903 46.2487C998.934 46.2487 999.734 46.5881 1000.31 47.2668C1000.88 47.9455 1001.16 48.9172 1001.16 50.1818V50.7458H995.794C995.813 51.527 996.041 52.1594 996.475 52.6428C996.915 53.1213 997.471 53.3605 998.145 53.3605C998.624 53.3605 999.029 53.2629 999.361 53.0676C999.693 52.8723 999.983 52.6135 1000.23 52.2912L1001.06 52.9357C1000.4 53.9562 999.4 54.4665 998.072 54.4665ZM997.903 47.362C997.356 47.362 996.897 47.5622 996.526 47.9626C996.155 48.3581 995.926 48.9147 995.838 49.6325H999.808V49.53C999.769 48.8415 999.583 48.3093 999.251 47.9333C998.919 47.5524 998.47 47.362 997.903 47.362ZM1007.35 52.218C1007.35 51.8517 1007.21 51.5685 1006.93 51.3683C1006.66 51.1633 1006.18 50.9875 1005.49 50.841C1004.81 50.6945 1004.26 50.5187 1003.86 50.3137C1003.46 50.1086 1003.16 49.8644 1002.96 49.5812C1002.77 49.298 1002.68 48.9611 1002.68 48.5705C1002.68 47.9211 1002.95 47.3718 1003.5 46.9225C1004.05 46.4733 1004.75 46.2487 1005.61 46.2487C1006.51 46.2487 1007.23 46.4807 1007.79 46.9445C1008.35 47.4084 1008.63 48.0016 1008.63 48.7243H1007.27C1007.27 48.3532 1007.11 48.0334 1006.79 47.7648C1006.48 47.4963 1006.09 47.362 1005.61 47.362C1005.12 47.362 1004.73 47.4694 1004.45 47.6843C1004.17 47.8991 1004.03 48.1799 1004.03 48.5266C1004.03 48.8537 1004.16 49.1003 1004.42 49.2663C1004.68 49.4323 1005.15 49.591 1005.82 49.7424C1006.5 49.8937 1007.05 50.0744 1007.47 50.2844C1007.89 50.4943 1008.2 50.7482 1008.4 51.0461C1008.6 51.3391 1008.71 51.6979 1008.71 52.1227C1008.71 52.8307 1008.42 53.3996 1007.86 53.8293C1007.29 54.2541 1006.56 54.4665 1005.65 54.4665C1005.02 54.4665 1004.46 54.3542 1003.97 54.1296C1003.48 53.905 1003.1 53.5925 1002.82 53.1921C1002.54 52.7868 1002.41 52.3498 1002.41 51.881H1003.76C1003.79 52.3351 1003.97 52.6965 1004.3 52.965C1004.65 53.2287 1005.1 53.3605 1005.65 53.3605C1006.17 53.3605 1006.58 53.258 1006.88 53.0529C1007.2 52.843 1007.35 52.5646 1007.35 52.218ZM1012.31 44.4763V46.3952H1013.79V47.4426H1012.31V52.3571C1012.31 52.6745 1012.38 52.9138 1012.51 53.0749C1012.64 53.2311 1012.86 53.3093 1013.18 53.3093C1013.34 53.3093 1013.55 53.28 1013.83 53.2214V54.32C1013.47 54.4177 1013.12 54.4665 1012.79 54.4665C1012.18 54.4665 1011.72 54.2834 1011.42 53.9172C1011.11 53.551 1010.96 53.0309 1010.96 52.3571V47.4426H1009.51V46.3952H1010.96V44.4763H1012.31ZM1017.97 52.3351L1019.82 46.3952H1021.27L1018.08 55.5432C1017.59 56.8615 1016.8 57.5207 1015.73 57.5207L1015.47 57.4987L1014.97 57.4035V56.3049L1015.33 56.3342C1015.79 56.3342 1016.15 56.2414 1016.4 56.0558C1016.66 55.8703 1016.88 55.5309 1017.04 55.0378L1017.34 54.2321L1014.51 46.3952H1015.99L1017.97 52.3351ZM1023.96 54.32H1022.6V43.07H1023.96V54.32ZM1029.42 54.4665C1028.35 54.4665 1027.47 54.1149 1026.8 53.4118C1026.12 52.7038 1025.79 51.759 1025.79 50.5773V50.3283C1025.79 49.5422 1025.94 48.8415 1026.23 48.2263C1026.54 47.6061 1026.96 47.1227 1027.49 46.7761C1028.04 46.4245 1028.62 46.2487 1029.25 46.2487C1030.28 46.2487 1031.08 46.5881 1031.65 47.2668C1032.22 47.9455 1032.51 48.9172 1032.51 50.1818V50.7458H1027.14C1027.16 51.527 1027.39 52.1594 1027.82 52.6428C1028.26 53.1213 1028.82 53.3605 1029.49 53.3605C1029.97 53.3605 1030.38 53.2629 1030.71 53.0676C1031.04 52.8723 1031.33 52.6135 1031.58 52.2912L1032.41 52.9357C1031.74 53.9562 1030.75 54.4665 1029.42 54.4665ZM1029.25 47.362C1028.7 47.362 1028.25 47.5622 1027.87 47.9626C1027.5 48.3581 1027.27 48.9147 1027.19 49.6325H1031.16V49.53C1031.12 48.8415 1030.93 48.3093 1030.6 47.9333C1030.27 47.5524 1029.82 47.362 1029.25 47.362Z" fill="white"/>
<path opacity="0.8" d="M1064.24 54.32V43.6559H1067.72C1068.88 43.6559 1069.75 43.8952 1070.33 44.3737C1070.92 44.8522 1071.21 45.5602 1071.21 46.4977C1071.21 46.9958 1071.07 47.4377 1070.79 47.8234C1070.5 48.2043 1070.12 48.4997 1069.63 48.7097C1070.2 48.8708 1070.66 49.1784 1070.99 49.6325C1071.33 50.0817 1071.5 50.6188 1071.5 51.2438C1071.5 52.2009 1071.19 52.9528 1070.57 53.4997C1069.95 54.0466 1069.07 54.32 1067.94 54.32H1064.24ZM1065.64 49.3322V53.1701H1067.97C1068.62 53.1701 1069.14 53.0016 1069.51 52.6647C1069.89 52.3229 1070.08 51.8542 1070.08 51.2585C1070.08 49.9743 1069.38 49.3322 1067.99 49.3322H1065.64ZM1065.64 48.2043H1067.77C1068.38 48.2043 1068.87 48.0505 1069.24 47.7429C1069.61 47.4352 1069.8 47.0178 1069.8 46.4904C1069.8 45.9045 1069.63 45.4797 1069.28 45.216C1068.94 44.9474 1068.42 44.8132 1067.72 44.8132H1065.64V48.2043ZM1077.2 47.611C1077 47.5768 1076.77 47.5598 1076.54 47.5598C1075.65 47.5598 1075.04 47.9382 1074.73 48.695V54.32H1073.37V46.3952H1074.69L1074.71 47.3107C1075.16 46.6027 1075.79 46.2487 1076.6 46.2487C1076.86 46.2487 1077.06 46.2829 1077.2 46.3513V47.611ZM1081.6 54.4665C1080.52 54.4665 1079.65 54.1149 1078.97 53.4118C1078.3 52.7038 1077.96 51.759 1077.96 50.5773V50.3283C1077.96 49.5422 1078.11 48.8415 1078.41 48.2263C1078.71 47.6061 1079.13 47.1227 1079.67 46.7761C1080.21 46.4245 1080.8 46.2487 1081.43 46.2487C1082.46 46.2487 1083.26 46.5881 1083.83 47.2668C1084.4 47.9455 1084.69 48.9172 1084.69 50.1818V50.7458H1079.32C1079.34 51.527 1079.56 52.1594 1080 52.6428C1080.44 53.1213 1081 53.3605 1081.67 53.3605C1082.15 53.3605 1082.55 53.2629 1082.89 53.0676C1083.22 52.8723 1083.51 52.6135 1083.76 52.2912L1084.58 52.9357C1083.92 53.9562 1082.92 54.4665 1081.6 54.4665ZM1081.43 47.362C1080.88 47.362 1080.42 47.5622 1080.05 47.9626C1079.68 48.3581 1079.45 48.9147 1079.36 49.6325H1083.33V49.53C1083.29 48.8415 1083.11 48.3093 1082.78 47.9333C1082.44 47.5524 1081.99 47.362 1081.43 47.362ZM1091.15 54.32C1091.08 54.1638 1091.01 53.8854 1090.96 53.485C1090.33 54.1393 1089.58 54.4665 1088.71 54.4665C1087.93 54.4665 1087.28 54.2468 1086.78 53.8073C1086.28 53.363 1086.03 52.8015 1086.03 52.1227C1086.03 51.2975 1086.35 50.6579 1086.97 50.2038C1087.6 49.7448 1088.49 49.5153 1089.62 49.5153H1090.94V48.8928C1090.94 48.4191 1090.8 48.0432 1090.52 47.7648C1090.23 47.4816 1089.82 47.34 1089.26 47.34C1088.78 47.34 1088.38 47.4621 1088.05 47.7062C1087.72 47.9504 1087.56 48.2458 1087.56 48.5925H1086.2C1086.2 48.197 1086.33 47.8161 1086.61 47.4499C1086.9 47.0788 1087.28 46.7858 1087.76 46.571C1088.24 46.3561 1088.77 46.2487 1089.35 46.2487C1090.26 46.2487 1090.97 46.4782 1091.49 46.9372C1092.01 47.3913 1092.28 48.0187 1092.3 48.8195V52.467C1092.3 53.1945 1092.39 53.7731 1092.58 54.2028V54.32H1091.15ZM1088.91 53.2873C1089.33 53.2873 1089.73 53.1774 1090.11 52.9577C1090.5 52.738 1090.77 52.4523 1090.94 52.1008V50.4748H1089.88C1088.22 50.4748 1087.39 50.9606 1087.39 51.9323C1087.39 52.3571 1087.53 52.6891 1087.81 52.9284C1088.1 53.1677 1088.46 53.2873 1088.91 53.2873ZM1096.63 50.6506L1095.78 51.5368V54.32H1094.43V43.07H1095.78V49.8742L1096.51 49.0026L1098.98 46.3952H1100.62L1097.54 49.7057L1100.98 54.32H1099.39L1096.63 50.6506ZM1103.5 54.32H1102.14V46.3952H1103.5V54.32ZM1102.03 44.2932C1102.03 44.0734 1102.1 43.8879 1102.23 43.7365C1102.37 43.5851 1102.57 43.5095 1102.83 43.5095C1103.09 43.5095 1103.29 43.5851 1103.43 43.7365C1103.57 43.8879 1103.63 44.0734 1103.63 44.2932C1103.63 44.5129 1103.57 44.696 1103.43 44.8425C1103.29 44.989 1103.09 45.0622 1102.83 45.0622C1102.57 45.0622 1102.37 44.989 1102.23 44.8425C1102.1 44.696 1102.03 44.5129 1102.03 44.2932ZM1106.95 46.3952L1107 47.3913C1107.6 46.6296 1108.39 46.2487 1109.37 46.2487C1111.04 46.2487 1111.89 47.1935 1111.9 49.0832V54.32H1110.55V49.0759C1110.54 48.5046 1110.41 48.0822 1110.15 47.8088C1109.9 47.5353 1109.5 47.3986 1108.96 47.3986C1108.52 47.3986 1108.13 47.5158 1107.8 47.7502C1107.47 47.9846 1107.21 48.2922 1107.03 48.673V54.32H1105.67V46.3952H1106.95ZM1113.62 50.2917C1113.62 49.0563 1113.91 48.0749 1114.48 47.3474C1115.05 46.6149 1115.81 46.2487 1116.75 46.2487C1117.72 46.2487 1118.47 46.5905 1119.02 47.2741L1119.08 46.3952H1120.32V54.1296C1120.32 55.155 1120.01 55.9631 1119.4 56.5539C1118.8 57.1447 1117.98 57.4401 1116.96 57.4401C1116.39 57.4401 1115.83 57.3181 1115.28 57.0739C1114.73 56.8298 1114.32 56.4953 1114.03 56.0705L1114.73 55.2575C1115.31 55.9753 1116.02 56.3342 1116.86 56.3342C1117.52 56.3342 1118.03 56.1486 1118.4 55.7775C1118.77 55.4064 1118.96 54.884 1118.96 54.2101V53.529C1118.42 54.154 1117.68 54.4665 1116.74 54.4665C1115.81 54.4665 1115.06 54.093 1114.48 53.3459C1113.91 52.5988 1113.62 51.5807 1113.62 50.2917ZM1114.99 50.4455C1114.99 51.3391 1115.17 52.0422 1115.54 52.5549C1115.9 53.0627 1116.42 53.3166 1117.07 53.3166C1117.93 53.3166 1118.56 52.9284 1118.96 52.152V48.5339C1118.54 47.777 1117.92 47.3986 1117.09 47.3986C1116.43 47.3986 1115.92 47.655 1115.54 48.1677C1115.17 48.6804 1114.99 49.4396 1114.99 50.4455Z" fill="white"/>
<path d="M313.455 26.9492V28.0693C312.688 28.1299 312.042 28.3418 311.518 28.7051C310.993 29.0684 310.529 29.6234 310.125 30.3701C310.004 30.6123 309.368 32.1764 308.218 35.0625L295.352 68.9385H294.171L283.999 42.4795L272.798 68.9385H271.678L258.176 35.4258C256.803 32.0553 255.845 30.0169 255.3 29.3105C254.755 28.6042 253.837 28.1904 252.545 28.0693V26.9492H270.346V28.0693C268.913 28.1097 267.954 28.3317 267.47 28.7354C267.006 29.1188 266.773 29.6032 266.773 30.1885C266.773 30.9554 267.268 32.5801 268.257 35.0625L276.31 54.9824L282.758 39.4219L281.062 35.0625C280.134 32.681 279.418 31.0967 278.913 30.3096C278.409 29.5023 277.823 28.9271 277.157 28.584C276.511 28.2409 275.553 28.0693 274.281 28.0693V26.9492H294.171V28.0693C292.778 28.0895 291.779 28.2005 291.174 28.4023C290.75 28.5436 290.417 28.7858 290.175 29.1289C289.933 29.4518 289.812 29.8252 289.812 30.249C289.812 30.7132 290.266 32.1361 291.174 34.5176L298.651 53.9531L305.342 36.3643C306.048 34.5479 306.482 33.3066 306.644 32.6406C306.805 31.9746 306.886 31.359 306.886 30.7939C306.886 29.9665 306.603 29.3206 306.038 28.8564C305.473 28.3721 304.393 28.1097 302.799 28.0693V26.9492H313.455ZM325.988 38.8467C328.451 38.8467 330.741 39.4824 332.86 40.7539C334.979 42.0254 336.584 43.8317 337.674 46.1729C338.784 48.514 339.339 51.0771 339.339 53.8623C339.339 57.8786 338.32 61.2389 336.281 63.9434C333.819 67.2129 330.418 68.8477 326.079 68.8477C321.821 68.8477 318.541 67.3542 316.24 64.3672C313.939 61.3802 312.789 57.9189 312.789 53.9834C312.789 49.9268 313.96 46.3949 316.301 43.3877C318.662 40.3604 321.891 38.8467 325.988 38.8467ZM326.109 40.9961C325.08 40.9961 324.192 41.3896 323.445 42.1768C322.719 42.9437 322.234 44.4775 321.992 46.7783C321.77 49.0589 321.659 52.2376 321.659 56.3145C321.659 58.474 321.8 60.4922 322.083 62.3691C322.305 63.8021 322.779 64.8919 323.506 65.6387C324.232 66.3854 325.06 66.7588 325.988 66.7588C326.896 66.7588 327.653 66.5065 328.259 66.002C329.046 65.3158 329.571 64.3571 329.833 63.126C330.237 61.2087 330.438 57.3337 330.438 51.501C330.438 48.07 330.247 45.7188 329.863 44.4473C329.48 43.1556 328.915 42.2171 328.168 41.6318C327.643 41.208 326.957 40.9961 326.109 40.9961ZM355.384 39.6943V46.1123C357.261 43.1859 358.906 41.2484 360.318 40.2998C361.731 39.3311 363.093 38.8467 364.405 38.8467C365.535 38.8467 366.434 39.1999 367.1 39.9062C367.786 40.5924 368.129 41.5713 368.129 42.8428C368.129 44.195 367.796 45.2445 367.13 45.9912C366.484 46.738 365.697 47.1113 364.769 47.1113C363.699 47.1113 362.771 46.7682 361.983 46.082C361.196 45.3958 360.732 45.0124 360.591 44.9316C360.389 44.8105 360.157 44.75 359.895 44.75C359.309 44.75 358.754 44.972 358.229 45.416C357.402 46.1022 356.776 47.0811 356.353 48.3525C355.707 50.3102 355.384 52.4697 355.384 54.8311V61.3398L355.414 63.0352C355.414 64.1855 355.485 64.9222 355.626 65.2451C355.868 65.79 356.221 66.1937 356.686 66.4561C357.17 66.6982 357.977 66.8496 359.107 66.9102V68H343.819V66.9102C345.05 66.8092 345.878 66.4762 346.302 65.9111C346.746 65.3258 346.968 63.8021 346.968 61.3398V45.6885C346.968 44.0739 346.887 43.0446 346.726 42.6006C346.524 42.0355 346.231 41.6217 345.848 41.3594C345.464 41.097 344.788 40.9154 343.819 40.8145V39.6943H355.384ZM382.267 26.9492V62.127C382.267 64.125 382.499 65.4066 382.963 65.9717C383.427 66.5166 384.335 66.8294 385.688 66.9102V68H370.399V66.9102C371.651 66.8698 372.579 66.5065 373.185 65.8203C373.588 65.3561 373.79 64.125 373.79 62.127V32.8223C373.79 30.8444 373.558 29.583 373.094 29.0381C372.63 28.473 371.731 28.1501 370.399 28.0693V26.9492H382.267ZM415.961 26.9492V59.5234C415.961 61.7233 416.021 63.0251 416.143 63.4287C416.304 64.0947 416.607 64.5892 417.051 64.9121C417.515 65.235 418.312 65.4368 419.442 65.5176V66.5166L407.484 68.8477V64.3672C406.051 66.1029 404.77 67.2835 403.64 67.9092C402.53 68.5348 401.268 68.8477 399.855 68.8477C396.243 68.8477 393.387 67.2331 391.288 64.0039C389.593 61.3802 388.745 58.1611 388.745 54.3467C388.745 51.2992 389.27 48.5745 390.319 46.1729C391.369 43.751 392.802 41.9245 394.618 40.6934C396.455 39.4622 398.423 38.8467 400.521 38.8467C401.874 38.8467 403.075 39.109 404.124 39.6338C405.174 40.1585 406.294 41.0768 407.484 42.3887V33.8516C407.484 31.6921 407.394 30.3903 407.212 29.9463C406.97 29.361 406.606 28.9271 406.122 28.6445C405.638 28.362 404.729 28.2207 403.397 28.2207V26.9492H415.961ZM407.484 46.1426C405.991 43.2767 404.164 41.8438 402.005 41.8438C401.258 41.8438 400.643 42.0456 400.158 42.4492C399.411 43.0749 398.796 44.1748 398.312 45.749C397.847 47.3232 397.615 49.735 397.615 52.9844C397.615 56.5566 397.878 59.2005 398.402 60.916C398.927 62.6315 399.644 63.8727 400.552 64.6396C401.016 65.0231 401.652 65.2148 402.459 65.2148C404.235 65.2148 405.91 63.8223 407.484 61.0371V46.1426Z" fill="white"/>
<rect width="94" height="28" transform="translate(290 86)" fill="#FF0000"/>
<path d="M305.254 97.0752L305.298 98.0713C305.904 97.3096 306.695 96.9287 307.671 96.9287C309.346 96.9287 310.191 97.8735 310.206 99.7632V105H308.851V99.7559C308.846 99.1846 308.714 98.7622 308.455 98.4888C308.201 98.2153 307.803 98.0786 307.261 98.0786C306.822 98.0786 306.436 98.1958 306.104 98.4302C305.772 98.6646 305.513 98.9722 305.328 99.353V105H303.973V97.0752H305.254ZM315.538 105.146C314.463 105.146 313.589 104.795 312.916 104.092C312.242 103.384 311.905 102.439 311.905 101.257V101.008C311.905 100.222 312.054 99.5215 312.352 98.9062C312.654 98.2861 313.074 97.8027 313.611 97.4561C314.153 97.1045 314.739 96.9287 315.369 96.9287C316.399 96.9287 317.2 97.2681 317.771 97.9468C318.343 98.6255 318.628 99.5972 318.628 100.862V101.426H313.26C313.279 102.207 313.506 102.839 313.941 103.323C314.38 103.801 314.937 104.041 315.611 104.041C316.089 104.041 316.495 103.943 316.827 103.748C317.159 103.552 317.449 103.293 317.698 102.971L318.526 103.616C317.862 104.636 316.866 105.146 315.538 105.146ZM315.369 98.042C314.822 98.042 314.363 98.2422 313.992 98.6426C313.621 99.0381 313.392 99.5947 313.304 100.312H317.273V100.21C317.234 99.5215 317.049 98.9893 316.717 98.6133C316.385 98.2324 315.936 98.042 315.369 98.042ZM327.22 103.132L328.743 97.0752H330.098L327.791 105H326.692L324.766 98.9941L322.891 105H321.792L319.493 97.0752H320.84L322.4 103.008L324.246 97.0752H325.337L327.22 103.132ZM336.097 102.898C336.097 102.532 335.958 102.249 335.679 102.048C335.406 101.843 334.925 101.667 334.236 101.521C333.553 101.375 333.008 101.199 332.603 100.994C332.203 100.789 331.905 100.544 331.709 100.261C331.519 99.978 331.424 99.6411 331.424 99.2505C331.424 98.6011 331.697 98.0518 332.244 97.6025C332.796 97.1533 333.499 96.9287 334.354 96.9287C335.252 96.9287 335.979 97.1606 336.536 97.6245C337.098 98.0884 337.378 98.6816 337.378 99.4043H336.016C336.016 99.0332 335.857 98.7134 335.54 98.4448C335.228 98.1763 334.832 98.042 334.354 98.042C333.86 98.042 333.475 98.1494 333.196 98.3643C332.918 98.5791 332.779 98.8599 332.779 99.2065C332.779 99.5337 332.908 99.7803 333.167 99.9463C333.426 100.112 333.892 100.271 334.566 100.422C335.245 100.574 335.794 100.754 336.214 100.964C336.634 101.174 336.944 101.428 337.144 101.726C337.349 102.019 337.452 102.378 337.452 102.803C337.452 103.511 337.168 104.08 336.602 104.509C336.036 104.934 335.301 105.146 334.397 105.146C333.763 105.146 333.201 105.034 332.713 104.81C332.225 104.585 331.841 104.272 331.563 103.872C331.29 103.467 331.153 103.03 331.153 102.561H332.508C332.532 103.015 332.713 103.376 333.05 103.645C333.392 103.909 333.841 104.041 334.397 104.041C334.91 104.041 335.32 103.938 335.628 103.733C335.94 103.523 336.097 103.245 336.097 102.898ZM345.911 101.125C345.911 102.332 345.635 103.303 345.083 104.041C344.532 104.778 343.785 105.146 342.842 105.146C341.88 105.146 341.124 104.841 340.572 104.231V108.047H339.217V97.0752H340.455L340.521 97.9541C341.072 97.2705 341.839 96.9287 342.82 96.9287C343.772 96.9287 344.524 97.2876 345.076 98.0054C345.633 98.7231 345.911 99.7217 345.911 101.001V101.125ZM344.556 100.972C344.556 100.078 344.366 99.3726 343.985 98.855C343.604 98.3374 343.082 98.0786 342.417 98.0786C341.597 98.0786 340.982 98.4424 340.572 99.1699V102.957C340.977 103.679 341.597 104.041 342.432 104.041C343.082 104.041 343.597 103.784 343.978 103.271C344.363 102.754 344.556 101.987 344.556 100.972ZM347.281 100.964C347.281 100.188 347.432 99.4897 347.735 98.8696C348.042 98.2495 348.467 97.771 349.009 97.4341C349.556 97.0972 350.179 96.9287 350.877 96.9287C351.956 96.9287 352.828 97.3022 353.492 98.0493C354.161 98.7964 354.495 99.79 354.495 101.03V101.125C354.495 101.897 354.346 102.59 354.048 103.206C353.755 103.816 353.333 104.292 352.781 104.634C352.234 104.976 351.604 105.146 350.892 105.146C349.817 105.146 348.946 104.773 348.277 104.026C347.613 103.279 347.281 102.29 347.281 101.06V100.964ZM348.643 101.125C348.643 102.004 348.846 102.71 349.251 103.242C349.661 103.774 350.208 104.041 350.892 104.041C351.58 104.041 352.127 103.772 352.532 103.235C352.938 102.693 353.14 101.936 353.14 100.964C353.14 100.095 352.933 99.3921 352.518 98.855C352.107 98.313 351.561 98.042 350.877 98.042C350.208 98.042 349.668 98.3081 349.258 98.8403C348.848 99.3726 348.643 100.134 348.643 101.125ZM357.667 105H356.312V97.0752H357.667V105ZM356.202 94.9731C356.202 94.7534 356.268 94.5679 356.399 94.4165C356.536 94.2651 356.736 94.1895 357 94.1895C357.264 94.1895 357.464 94.2651 357.601 94.4165C357.737 94.5679 357.806 94.7534 357.806 94.9731C357.806 95.1929 357.737 95.376 357.601 95.5225C357.464 95.6689 357.264 95.7422 357 95.7422C356.736 95.7422 356.536 95.6689 356.399 95.5225C356.268 95.376 356.202 95.1929 356.202 94.9731ZM361.124 97.0752L361.167 98.0713C361.773 97.3096 362.564 96.9287 363.541 96.9287C365.215 96.9287 366.06 97.8735 366.075 99.7632V105H364.72V99.7559C364.715 99.1846 364.583 98.7622 364.324 98.4888C364.07 98.2153 363.672 98.0786 363.13 98.0786C362.691 98.0786 362.305 98.1958 361.973 98.4302C361.641 98.6646 361.382 98.9722 361.197 99.353V105H359.842V97.0752H361.124ZM369.957 95.1562V97.0752H371.436V98.1226H369.957V103.037C369.957 103.354 370.022 103.594 370.154 103.755C370.286 103.911 370.511 103.989 370.828 103.989C370.984 103.989 371.199 103.96 371.473 103.901V105C371.116 105.098 370.77 105.146 370.433 105.146C369.827 105.146 369.371 104.963 369.063 104.597C368.755 104.231 368.602 103.711 368.602 103.037V98.1226H367.159V97.0752H368.602V95.1562H369.957Z" fill="white"/>
</svg>
