<svg width="450" height="110" viewBox="0 0 450 110" fill="none" xmlns="http://www.w3.org/2000/svg">
<g clip-path="url(#clip0)">
<path d="M450 0H0V100H450V0Z" fill="black"/>
<path d="M61.0599 41.25H38.9399V43.9H61.0599V41.25Z" fill="white"/>
<path d="M61.0599 48.24H38.9399V50.89H61.0599V48.24Z" fill="white"/>
<path d="M61.0599 55.23H38.9399V57.88H61.0599V55.23Z" fill="white"/>
<path d="M406.24 53.42C407.479 51.6349 408.143 49.5132 408.14 47.34C408.142 44.8814 407.304 42.4959 405.764 40.5792C404.224 38.6625 402.076 37.3297 399.674 36.8019C397.273 36.274 394.764 36.5829 392.562 37.6772C390.36 38.7715 388.599 40.5855 387.57 42.8184C386.541 45.0512 386.306 47.5688 386.904 49.9535C387.502 52.3382 388.898 54.4468 390.859 55.9295C392.82 57.4122 395.229 58.18 397.687 58.1055C400.144 58.0311 402.502 57.1188 404.37 55.52L411.37 62.52L413.37 60.52L406.24 53.42ZM397.38 55.31C395.798 55.31 394.251 54.8408 392.936 53.9618C391.62 53.0827 390.595 51.8333 389.989 50.3715C389.384 48.9097 389.225 47.3011 389.534 45.7493C389.842 44.1974 390.604 42.772 391.723 41.6532C392.842 40.5343 394.268 39.7724 395.819 39.4637C397.371 39.1551 398.98 39.3135 400.442 39.919C401.903 40.5245 403.153 41.5499 404.032 42.8655C404.911 44.181 405.38 45.7278 405.38 47.31C405.38 49.4317 404.537 51.4666 403.037 52.9669C401.537 54.4672 399.502 55.31 397.38 55.31Z" fill="white"/>
<path d="M202.455 26.9492V28.0693C201.688 28.1299 201.042 28.3418 200.518 28.7051C199.993 29.0684 199.529 29.6234 199.125 30.3701C199.004 30.6123 198.368 32.1764 197.218 35.0625L184.352 68.9385H183.171L172.999 42.4795L161.798 68.9385H160.678L147.176 35.4258C145.803 32.0553 144.845 30.0169 144.3 29.3105C143.755 28.6042 142.837 28.1904 141.545 28.0693V26.9492H159.346V28.0693C157.913 28.1097 156.954 28.3317 156.47 28.7354C156.006 29.1188 155.773 29.6032 155.773 30.1885C155.773 30.9554 156.268 32.5801 157.257 35.0625L165.31 54.9824L171.758 39.4219L170.062 35.0625C169.134 32.681 168.418 31.0967 167.913 30.3096C167.409 29.5023 166.823 28.9271 166.157 28.584C165.511 28.2409 164.553 28.0693 163.281 28.0693V26.9492H183.171V28.0693C181.778 28.0895 180.779 28.2005 180.174 28.4023C179.75 28.5436 179.417 28.7858 179.175 29.1289C178.933 29.4518 178.812 29.8252 178.812 30.249C178.812 30.7132 179.266 32.1361 180.174 34.5176L187.651 53.9531L194.342 36.3643C195.048 34.5479 195.482 33.3066 195.644 32.6406C195.805 31.9746 195.886 31.359 195.886 30.7939C195.886 29.9665 195.603 29.3206 195.038 28.8564C194.473 28.3721 193.393 28.1097 191.799 28.0693V26.9492H202.455ZM214.988 38.8467C217.451 38.8467 219.741 39.4824 221.86 40.7539C223.979 42.0254 225.584 43.8317 226.674 46.1729C227.784 48.514 228.339 51.0771 228.339 53.8623C228.339 57.8786 227.32 61.2389 225.281 63.9434C222.819 67.2129 219.418 68.8477 215.079 68.8477C210.821 68.8477 207.541 67.3542 205.24 64.3672C202.939 61.3802 201.789 57.9189 201.789 53.9834C201.789 49.9268 202.96 46.3949 205.301 43.3877C207.662 40.3604 210.891 38.8467 214.988 38.8467ZM215.109 40.9961C214.08 40.9961 213.192 41.3896 212.445 42.1768C211.719 42.9437 211.234 44.4775 210.992 46.7783C210.77 49.0589 210.659 52.2376 210.659 56.3145C210.659 58.474 210.8 60.4922 211.083 62.3691C211.305 63.8021 211.779 64.8919 212.506 65.6387C213.232 66.3854 214.06 66.7588 214.988 66.7588C215.896 66.7588 216.653 66.5065 217.259 66.002C218.046 65.3158 218.571 64.3571 218.833 63.126C219.237 61.2087 219.438 57.3337 219.438 51.501C219.438 48.07 219.247 45.7188 218.863 44.4473C218.48 43.1556 217.915 42.2171 217.168 41.6318C216.643 41.208 215.957 40.9961 215.109 40.9961ZM244.384 39.6943V46.1123C246.261 43.1859 247.906 41.2484 249.318 40.2998C250.731 39.3311 252.093 38.8467 253.405 38.8467C254.535 38.8467 255.434 39.1999 256.1 39.9062C256.786 40.5924 257.129 41.5713 257.129 42.8428C257.129 44.195 256.796 45.2445 256.13 45.9912C255.484 46.738 254.697 47.1113 253.769 47.1113C252.699 47.1113 251.771 46.7682 250.983 46.082C250.196 45.3958 249.732 45.0124 249.591 44.9316C249.389 44.8105 249.157 44.75 248.895 44.75C248.309 44.75 247.754 44.972 247.229 45.416C246.402 46.1022 245.776 47.0811 245.353 48.3525C244.707 50.3102 244.384 52.4697 244.384 54.8311V61.3398L244.414 63.0352C244.414 64.1855 244.485 64.9222 244.626 65.2451C244.868 65.79 245.221 66.1937 245.686 66.4561C246.17 66.6982 246.977 66.8496 248.107 66.9102V68H232.819V66.9102C234.05 66.8092 234.878 66.4762 235.302 65.9111C235.746 65.3258 235.968 63.8021 235.968 61.3398V45.6885C235.968 44.0739 235.887 43.0446 235.726 42.6006C235.524 42.0355 235.231 41.6217 234.848 41.3594C234.464 41.097 233.788 40.9154 232.819 40.8145V39.6943H244.384ZM271.267 26.9492V62.127C271.267 64.125 271.499 65.4066 271.963 65.9717C272.427 66.5166 273.335 66.8294 274.688 66.9102V68H259.399V66.9102C260.651 66.8698 261.579 66.5065 262.185 65.8203C262.588 65.3561 262.79 64.125 262.79 62.127V32.8223C262.79 30.8444 262.558 29.583 262.094 29.0381C261.63 28.473 260.731 28.1501 259.399 28.0693V26.9492H271.267ZM304.961 26.9492V59.5234C304.961 61.7233 305.021 63.0251 305.143 63.4287C305.304 64.0947 305.607 64.5892 306.051 64.9121C306.515 65.235 307.312 65.4368 308.442 65.5176V66.5166L296.484 68.8477V64.3672C295.051 66.1029 293.77 67.2835 292.64 67.9092C291.53 68.5348 290.268 68.8477 288.855 68.8477C285.243 68.8477 282.387 67.2331 280.288 64.0039C278.593 61.3802 277.745 58.1611 277.745 54.3467C277.745 51.2992 278.27 48.5745 279.319 46.1729C280.369 43.751 281.802 41.9245 283.618 40.6934C285.455 39.4622 287.423 38.8467 289.521 38.8467C290.874 38.8467 292.075 39.109 293.124 39.6338C294.174 40.1585 295.294 41.0768 296.484 42.3887V33.8516C296.484 31.6921 296.394 30.3903 296.212 29.9463C295.97 29.361 295.606 28.9271 295.122 28.6445C294.638 28.362 293.729 28.2207 292.397 28.2207V26.9492H304.961ZM296.484 46.1426C294.991 43.2767 293.164 41.8438 291.005 41.8438C290.258 41.8438 289.643 42.0456 289.158 42.4492C288.411 43.0749 287.796 44.1748 287.312 45.749C286.847 47.3232 286.615 49.735 286.615 52.9844C286.615 56.5566 286.878 59.2005 287.402 60.916C287.927 62.6315 288.644 63.8727 289.552 64.6396C290.016 65.0231 290.652 65.2148 291.459 65.2148C293.235 65.2148 294.91 63.8223 296.484 61.0371V46.1426Z" fill="white"/>
<rect width="94" height="28" transform="translate(178 83)" fill="#FF0000"/>
<path d="M193.254 94.0752L193.298 95.0713C193.904 94.3096 194.695 93.9287 195.671 93.9287C197.346 93.9287 198.191 94.8735 198.206 96.7632V102H196.851V96.7559C196.846 96.1846 196.714 95.7622 196.455 95.4888C196.201 95.2153 195.803 95.0786 195.261 95.0786C194.822 95.0786 194.436 95.1958 194.104 95.4302C193.772 95.6646 193.513 95.9722 193.328 96.353V102H191.973V94.0752H193.254ZM203.538 102.146C202.463 102.146 201.589 101.795 200.916 101.092C200.242 100.384 199.905 99.439 199.905 98.2573V98.0083C199.905 97.2222 200.054 96.5215 200.352 95.9062C200.654 95.2861 201.074 94.8027 201.611 94.4561C202.153 94.1045 202.739 93.9287 203.369 93.9287C204.399 93.9287 205.2 94.2681 205.771 94.9468C206.343 95.6255 206.628 96.5972 206.628 97.8618V98.4258H201.26C201.279 99.207 201.506 99.8394 201.941 100.323C202.38 100.801 202.937 101.041 203.611 101.041C204.089 101.041 204.495 100.943 204.827 100.748C205.159 100.552 205.449 100.293 205.698 99.9712L206.526 100.616C205.862 101.636 204.866 102.146 203.538 102.146ZM203.369 95.042C202.822 95.042 202.363 95.2422 201.992 95.6426C201.621 96.0381 201.392 96.5947 201.304 97.3125H205.273V97.21C205.234 96.5215 205.049 95.9893 204.717 95.6133C204.385 95.2324 203.936 95.042 203.369 95.042ZM215.22 100.132L216.743 94.0752H218.098L215.791 102H214.692L212.766 95.9941L210.891 102H209.792L207.493 94.0752H208.84L210.4 100.008L212.246 94.0752H213.337L215.22 100.132ZM224.097 99.8979C224.097 99.5317 223.958 99.2485 223.679 99.0483C223.406 98.8433 222.925 98.6675 222.236 98.521C221.553 98.3745 221.008 98.1987 220.603 97.9937C220.203 97.7886 219.905 97.5444 219.709 97.2612C219.519 96.978 219.424 96.6411 219.424 96.2505C219.424 95.6011 219.697 95.0518 220.244 94.6025C220.796 94.1533 221.499 93.9287 222.354 93.9287C223.252 93.9287 223.979 94.1606 224.536 94.6245C225.098 95.0884 225.378 95.6816 225.378 96.4043H224.016C224.016 96.0332 223.857 95.7134 223.54 95.4448C223.228 95.1763 222.832 95.042 222.354 95.042C221.86 95.042 221.475 95.1494 221.196 95.3643C220.918 95.5791 220.779 95.8599 220.779 96.2065C220.779 96.5337 220.908 96.7803 221.167 96.9463C221.426 97.1123 221.892 97.271 222.566 97.4224C223.245 97.5737 223.794 97.7544 224.214 97.9644C224.634 98.1743 224.944 98.4282 225.144 98.7261C225.349 99.019 225.452 99.3779 225.452 99.8027C225.452 100.511 225.168 101.08 224.602 101.509C224.036 101.934 223.301 102.146 222.397 102.146C221.763 102.146 221.201 102.034 220.713 101.81C220.225 101.585 219.841 101.272 219.563 100.872C219.29 100.467 219.153 100.03 219.153 99.561H220.508C220.532 100.015 220.713 100.376 221.05 100.645C221.392 100.909 221.841 101.041 222.397 101.041C222.91 101.041 223.32 100.938 223.628 100.733C223.94 100.523 224.097 100.245 224.097 99.8979ZM233.911 98.1255C233.911 99.3315 233.635 100.303 233.083 101.041C232.532 101.778 231.785 102.146 230.842 102.146C229.88 102.146 229.124 101.841 228.572 101.231V105.047H227.217V94.0752H228.455L228.521 94.9541C229.072 94.2705 229.839 93.9287 230.82 93.9287C231.772 93.9287 232.524 94.2876 233.076 95.0054C233.633 95.7231 233.911 96.7217 233.911 98.001V98.1255ZM232.556 97.9717C232.556 97.0781 232.366 96.3726 231.985 95.855C231.604 95.3374 231.082 95.0786 230.417 95.0786C229.597 95.0786 228.982 95.4424 228.572 96.1699V99.9565C228.977 100.679 229.597 101.041 230.432 101.041C231.082 101.041 231.597 100.784 231.978 100.271C232.363 99.7539 232.556 98.9873 232.556 97.9717ZM235.281 97.9644C235.281 97.188 235.432 96.4897 235.735 95.8696C236.042 95.2495 236.467 94.771 237.009 94.4341C237.556 94.0972 238.179 93.9287 238.877 93.9287C239.956 93.9287 240.828 94.3022 241.492 95.0493C242.161 95.7964 242.495 96.79 242.495 98.0303V98.1255C242.495 98.897 242.346 99.5903 242.048 100.206C241.755 100.816 241.333 101.292 240.781 101.634C240.234 101.976 239.604 102.146 238.892 102.146C237.817 102.146 236.946 101.773 236.277 101.026C235.613 100.279 235.281 99.29 235.281 98.0596V97.9644ZM236.643 98.1255C236.643 99.0044 236.846 99.71 237.251 100.242C237.661 100.774 238.208 101.041 238.892 101.041C239.58 101.041 240.127 100.772 240.532 100.235C240.938 99.6929 241.14 98.936 241.14 97.9644C241.14 97.0952 240.933 96.3921 240.518 95.855C240.107 95.313 239.561 95.042 238.877 95.042C238.208 95.042 237.668 95.3081 237.258 95.8403C236.848 96.3726 236.643 97.1343 236.643 98.1255ZM245.667 102H244.312V94.0752H245.667V102ZM244.202 91.9731C244.202 91.7534 244.268 91.5679 244.399 91.4165C244.536 91.2651 244.736 91.1895 245 91.1895C245.264 91.1895 245.464 91.2651 245.601 91.4165C245.737 91.5679 245.806 91.7534 245.806 91.9731C245.806 92.1929 245.737 92.376 245.601 92.5225C245.464 92.6689 245.264 92.7422 245 92.7422C244.736 92.7422 244.536 92.6689 244.399 92.5225C244.268 92.376 244.202 92.1929 244.202 91.9731ZM249.124 94.0752L249.167 95.0713C249.773 94.3096 250.564 93.9287 251.541 93.9287C253.215 93.9287 254.06 94.8735 254.075 96.7632V102H252.72V96.7559C252.715 96.1846 252.583 95.7622 252.324 95.4888C252.07 95.2153 251.672 95.0786 251.13 95.0786C250.691 95.0786 250.305 95.1958 249.973 95.4302C249.641 95.6646 249.382 95.9722 249.197 96.353V102H247.842V94.0752H249.124ZM257.957 92.1562V94.0752H259.436V95.1226H257.957V100.037C257.957 100.354 258.022 100.594 258.154 100.755C258.286 100.911 258.511 100.989 258.828 100.989C258.984 100.989 259.199 100.96 259.473 100.901V102C259.116 102.098 258.77 102.146 258.433 102.146C257.827 102.146 257.371 101.963 257.063 101.597C256.755 101.231 256.602 100.711 256.602 100.037V95.1226H255.159V94.0752H256.602V92.1562H257.957Z" fill="white"/>
</g>
<defs>
<clipPath id="clip0">
<rect width="450" height="110" fill="white"/>
</clipPath>
</defs>
</svg>
